<svg version="1.0" xmlns="http://www.w3.org/2000/svg" width="710.667" height="710.667" viewBox="0 0 533 533"><path d="M248 1.7c-3 .2-10.4 1-16.5 1.8-59.3 8.3-109.3 33.2-151.6 75.4-8.5 8.6-18.5 19.4-22.1 24.1-29.2 37.9-47.2 80.9-54 129-2 14.7-1.7 56.4.6 71.5 15.3 100.1 83.4 181.6 178.3 213.3 27.4 9.2 53.4 13.3 84.4 13.2 53.9 0 101.1-14.1 145.4-43.3 21-13.9 44.3-35 59.8-54.2 29.1-36.1 49-80.9 56.2-126.5 2.2-14.1 3.1-51.2 1.6-66.6-9.1-90.7-64.8-170.8-146.6-210.9-36.2-17.7-71.3-26.2-111-26.9-10.4-.1-21.5-.1-24.5.1zm60 19.2c40.9 7.5 75.6 22.5 108.1 46.8 11.3 8.4 32 28 41.4 39.3 29.3 35.3 48.3 78.1 55.2 124.5 2.1 14.8 2.4 51.2.4 65.5-2.7 20-8.2 41.6-14.7 58.2-32.9 83.7-106.5 142.6-195.4 156.3-14.6 2.3-44.8 3.1-59.5 1.6-49.1-5-94.4-23.4-132.5-53.8-10.6-8.4-28.6-26.3-37-36.7-22.1-27.4-39-60.8-47.6-94.1-15.1-58.9-9.1-117.6 17.5-172C72.2 98.7 121.4 54.6 182.5 32.2c16.5-6 32.3-9.7 59-13.6 1.7-.2 14.7-.3 29-.1 21.1.3 28.2.7 37.5 2.4z"/><path d="M261.3 38.6c-31.5 49.2-51 110.9-57.9 182.9-2.2 23.3-1.4 75.1 1.5 97 8.2 62.3 25 113.3 52.8 160.8 4.1 7 7.9 12.9 8.3 13.2 1.2.7 11.8-17.5 20-34 23.9-48.8 37.3-99.3 42.1-158.8 1.5-19.2.7-70.5-1.5-88.3C319.1 148.6 303 95 278.1 50.3c-12.3-22.1-10.8-21-16.8-11.7zM38.7 273.2c2.7 73.9 40.8 143 101.3 183.6 20.6 13.8 51.7 26.8 77.6 32.6 11.1 2.5 22.4 4.2 22.4 3.4 0-2.4-8.1-28.8-12.1-39.6-28.3-76.1-84.7-140.2-153.6-174.6-7-3.5-17.1-7.9-22.3-9.9-15.3-5.6-13.7-6.2-13.3 4.5zM483 267.6c-5.2 1.9-16.7 7-25.5 11.3-66 32.5-121.6 93.9-150.5 166.1-4.8 12-10.5 29.8-12.9 40-2.2 9.3-3 8.8 10 6.5 52.1-9.1 99.4-35.4 132.6-74 29.4-34.1 48.2-75.8 54.7-121.5 1.9-13.6 3-32 1.9-31.9-.4 0-5.1 1.6-10.3 3.5z"/></svg>